<svg width="1440" height="900" viewBox="0 0 1440 900" fill="none" xmlns="http://www.w3.org/2000/svg">
<rect width="1440" height="900" fill="#1A2A33"/>
<g filter="url(#filter0_i_0_2264)">
<rect x="490" y="210" width="140" height="140" rx="15" fill="#1F3641"/>
</g>
<g filter="url(#filter1_i_0_2264)">
<rect x="650" y="211" width="140" height="140" rx="15" fill="#1F3641"/>
</g>
<path fill-rule="evenodd" clip-rule="evenodd" d="M741.241 250.147C740.069 248.976 738.17 248.976 736.998 250.147L720 267.145L703.002 250.147C701.83 248.976 699.931 248.976 698.759 250.147L689.147 259.759C687.976 260.931 687.976 262.83 689.147 264.002L706.145 281L689.147 297.998C687.976 299.17 687.976 301.069 689.147 302.241L698.759 311.853C699.931 313.024 701.83 313.024 703.002 311.853L720 294.855L736.998 311.853C738.17 313.024 740.069 313.024 741.241 311.853L750.853 302.241C752.024 301.069 752.024 299.17 750.853 297.998L733.855 281L750.853 264.002C752.024 262.83 752.024 260.931 750.853 259.759L741.241 250.147Z" fill="#31C3BD"/>
<g filter="url(#filter2_i_0_2264)">
<rect x="810" y="211" width="140" height="140" rx="15" fill="#1F3641"/>
</g>
<path fill-rule="evenodd" clip-rule="evenodd" d="M912 281C912 263.327 897.673 249 880 249C862.327 249 848 263.327 848 281C848 298.673 862.327 313 880 313C897.673 313 912 298.673 912 281ZM866.963 281C866.963 273.8 872.8 267.963 880 267.963C887.2 267.963 893.037 273.8 893.037 281C893.037 288.2 887.2 294.037 880 294.037C872.8 294.037 866.963 288.2 866.963 281Z" fill="#F2B137"/>
<g filter="url(#filter3_i_0_2264)">
<rect x="490" y="371" width="140" height="140" rx="15" fill="#1F3641"/>
</g>
<path fill-rule="evenodd" clip-rule="evenodd" d="M581.241 410.147C580.069 408.976 578.17 408.976 576.998 410.147L560 427.145L543.002 410.147C541.83 408.976 539.931 408.976 538.759 410.147L529.147 419.759C527.976 420.931 527.976 422.83 529.147 424.002L546.145 441L529.147 457.998C527.976 459.17 527.976 461.069 529.147 462.241L538.759 471.853C539.931 473.024 541.83 473.024 543.002 471.853L560 454.855L576.998 471.853C578.17 473.024 580.069 473.024 581.241 471.853L590.853 462.241C592.024 461.069 592.024 459.17 590.853 457.998L573.855 441L590.853 424.002C592.024 422.83 592.024 420.931 590.853 419.759L581.241 410.147Z" fill="#31C3BD"/>
<g filter="url(#filter4_i_0_2264)">
<rect x="650" y="371" width="140" height="140" rx="15" fill="#1F3641"/>
</g>
<path fill-rule="evenodd" clip-rule="evenodd" d="M752 441C752 423.327 737.673 409 720 409C702.327 409 688 423.327 688 441C688 458.673 702.327 473 720 473C737.673 473 752 458.673 752 441ZM706.963 441C706.963 433.8 712.8 427.963 720 427.963C727.2 427.963 733.037 433.8 733.037 441C733.037 448.2 727.2 454.037 720 454.037C712.8 454.037 706.963 448.2 706.963 441Z" fill="#F2B137"/>
<g filter="url(#filter5_i_0_2264)">
<rect x="810" y="371" width="140" height="140" rx="15" fill="#1F3641"/>
</g>
<path fill-rule="evenodd" clip-rule="evenodd" d="M901.241 410.147C900.069 408.976 898.17 408.976 896.998 410.147L880 427.145L863.002 410.147C861.83 408.976 859.931 408.976 858.759 410.147L849.147 419.759C847.976 420.931 847.976 422.83 849.147 424.002L866.145 441L849.147 457.998C847.976 459.17 847.976 461.069 849.147 462.241L858.759 471.853C859.931 473.024 861.83 473.024 863.002 471.853L880 454.855L896.998 471.853C898.17 473.024 900.069 473.024 901.241 471.853L910.853 462.241C912.024 461.069 912.024 459.17 910.853 457.998L893.855 441L910.853 424.002C912.024 422.83 912.024 420.931 910.853 419.759L901.241 410.147Z" fill="#31C3BD"/>
<g filter="url(#filter6_i_0_2264)">
<rect x="490" y="531" width="140" height="140" rx="15" fill="#1F3641"/>
</g>
<g filter="url(#filter7_i_0_2264)">
<rect x="650" y="531" width="140" height="140" rx="15" fill="#1F3641"/>
</g>
<path fill-rule="evenodd" clip-rule="evenodd" d="M752 601C752 583.327 737.673 569 720 569C702.327 569 688 583.327 688 601C688 618.673 702.327 633 720 633C737.673 633 752 618.673 752 601ZM706.963 601C706.963 593.8 712.8 587.963 720 587.963C727.2 587.963 733.037 593.8 733.037 601C733.037 608.2 727.2 614.037 720 614.037C712.8 614.037 706.963 608.2 706.963 601Z" fill="#F2B137"/>
<g filter="url(#filter8_i_0_2264)">
<rect x="810" y="531" width="140" height="140" rx="15" fill="#1F3641"/>
</g>
<path fill-rule="evenodd" clip-rule="evenodd" d="M901.241 570.147C900.069 568.976 898.17 568.976 896.998 570.147L880 587.145L863.002 570.147C861.83 568.976 859.931 568.976 858.759 570.147L849.147 579.759C847.976 580.931 847.976 582.83 849.147 584.002L866.145 601L849.147 617.998C847.976 619.17 847.976 621.069 849.147 622.241L858.759 631.853C859.931 633.024 861.83 633.024 863.002 631.853L880 614.855L896.998 631.853C898.17 633.024 900.069 633.024 901.241 631.853L910.853 622.241C912.024 621.069 912.024 619.17 910.853 617.998L893.855 601L910.853 584.002C912.024 582.83 912.024 580.931 910.853 579.759L901.241 570.147Z" fill="#31C3BD"/>
<path fill-rule="evenodd" clip-rule="evenodd" d="M520.681 150.634C519.509 149.463 517.61 149.463 516.438 150.634L509 158.073L501.562 150.634C500.39 149.463 498.491 149.463 497.319 150.634L494.634 153.319C493.463 154.491 493.463 156.39 494.634 157.562L502.073 165L494.634 172.438C493.463 173.61 493.463 175.509 494.634 176.681L497.319 179.366C498.491 180.537 500.39 180.537 501.562 179.366L509 171.927L516.438 179.366C517.61 180.537 519.509 180.537 520.681 179.366L523.366 176.681C524.537 175.509 524.537 173.61 523.366 172.438L515.927 165L523.366 157.562C524.537 156.39 524.537 154.491 523.366 153.319L520.681 150.634Z" fill="#31C3BD"/>
<path fill-rule="evenodd" clip-rule="evenodd" d="M564.97 164.871C564.97 156.106 557.865 149 549.1 149C540.335 149 533.229 156.106 533.229 164.871C533.229 173.636 540.335 180.741 549.1 180.741C557.865 180.741 564.97 173.636 564.97 164.871ZM542.634 164.871C542.634 161.3 545.529 158.405 549.1 158.405C552.671 158.405 555.566 161.3 555.566 164.871C555.566 168.442 552.671 171.336 549.1 171.336C545.529 171.336 542.634 168.442 542.634 164.871Z" fill="#F2B137"/>
<g filter="url(#filter9_i_0_2264)">
<rect x="650" y="139" width="140" height="52" rx="10" fill="#1F3641"/>
</g>
<g clip-path="url(#clip0_0_2264)">
<path fill-rule="evenodd" clip-rule="evenodd" d="M699.723 155.306L696.694 152.277C696.325 151.908 695.726 151.908 695.357 152.277L690 157.634L684.643 152.277C684.274 151.908 683.675 151.908 683.306 152.277L680.277 155.306C679.908 155.675 679.908 156.274 680.277 156.643L685.634 162L680.277 167.357C679.908 167.726 679.908 168.325 680.277 168.694L683.306 171.723C683.675 172.092 684.274 172.092 684.643 171.723L690 166.366L695.357 171.723C695.726 172.092 696.325 172.092 696.694 171.723L699.723 168.694C700.092 168.325 700.092 167.726 699.723 167.357L694.366 162L699.723 156.643C700.092 156.274 700.092 155.675 699.723 155.306Z" fill="#A8BFC9"/>
<path d="M717.145 168V156.864H719.657V168H717.145ZM713.609 158.896V156.704H723.193V158.896H713.609ZM730.077 168.176C729.149 168.176 728.328 167.979 727.613 167.584C726.909 167.189 726.355 166.645 725.949 165.952C725.555 165.248 725.357 164.448 725.357 163.552V156.704H727.885V163.696C727.885 164.144 727.981 164.533 728.173 164.864C728.365 165.195 728.627 165.451 728.957 165.632C729.299 165.803 729.672 165.888 730.077 165.888C730.504 165.888 730.877 165.803 731.197 165.632C731.517 165.451 731.768 165.2 731.949 164.88C732.141 164.549 732.237 164.16 732.237 163.712V156.704H734.765V163.568C734.765 164.464 734.568 165.259 734.173 165.952C733.779 166.645 733.229 167.189 732.525 167.584C731.821 167.979 731.005 168.176 730.077 168.176ZM739.688 163.344V161.488H742.072C742.573 161.488 742.957 161.36 743.224 161.104C743.501 160.848 743.64 160.501 743.64 160.064C743.64 159.659 743.506 159.323 743.24 159.056C742.973 158.789 742.589 158.656 742.088 158.656H739.688V156.704H742.376C743.122 156.704 743.778 156.848 744.344 157.136C744.909 157.413 745.352 157.803 745.672 158.304C745.992 158.805 746.152 159.381 746.152 160.032C746.152 160.693 745.992 161.275 745.672 161.776C745.352 162.267 744.904 162.651 744.328 162.928C743.752 163.205 743.074 163.344 742.296 163.344H739.688ZM737.768 168V156.704H740.28V168H737.768ZM743.912 168L740.392 163.136L742.696 162.512L746.888 168H743.912ZM748.986 168V156.704H750.746L751.498 158.96V168H748.986ZM756.778 168L750.122 159.472L750.746 156.704L757.402 165.232L756.778 168ZM756.778 168L756.106 165.744V156.704H758.618V168H756.778Z" fill="#A8BFC9"/>
</g>
<g filter="url(#filter10_i_0_2264)">
<rect x="898" y="139" width="52" height="52" rx="10" fill="#A8BFC9"/>
</g>
<path d="M933.524 155H931.644C931.381 155 931.168 155.213 931.168 155.476C931.168 155.483 931.168 155.491 931.168 155.499L931.327 158.783C929.46 156.582 926.72 155.314 923.835 155.317C918.415 155.317 913.996 159.743 914 165.166C914.004 170.598 918.406 175 923.835 175C926.27 175.003 928.62 174.099 930.425 172.464C930.621 172.288 930.637 171.987 930.462 171.791C930.456 171.785 930.45 171.778 930.444 171.772L929.096 170.423C928.919 170.246 928.635 170.236 928.446 170.401C925.552 172.949 921.142 172.667 918.596 169.771C916.049 166.875 916.331 162.462 919.225 159.914C922.119 157.366 926.53 157.648 929.076 160.544C929.275 160.771 929.46 161.011 929.629 161.262L925.602 161.069C925.34 161.056 925.117 161.259 925.104 161.522C925.104 161.529 925.104 161.537 925.104 161.545V163.426C925.104 163.689 925.317 163.902 925.58 163.902H933.524C933.787 163.902 934 163.689 934 163.426V155.476C934 155.213 933.787 155 933.524 155Z" fill="#1F3641"/>
<rect x="491" y="690" width="140" height="72" rx="15" fill="#31C3BD"/>
<path d="M547.388 717L544.504 712.632H544.21L540.332 707.2H542.236L545.134 711.316H545.428L549.264 717H547.388ZM540.164 717L543.888 711.764L544.994 712.702L541.97 717H540.164ZM545.54 712.31L544.434 711.372L547.29 707.2H549.096L545.54 712.31ZM557.124 718.666C556.63 718.227 556.2 717.691 555.836 717.056C555.482 716.421 555.206 715.726 555.01 714.97C554.814 714.214 554.716 713.43 554.716 712.618C554.716 711.806 554.814 711.022 555.01 710.266C555.206 709.51 555.482 708.815 555.836 708.18C556.2 707.545 556.63 707.009 557.124 706.57L558.006 707.354C557.39 707.923 556.91 708.661 556.564 709.566C556.228 710.462 556.06 711.479 556.06 712.618C556.06 713.747 556.228 714.765 556.564 715.67C556.91 716.575 557.39 717.313 558.006 717.882L557.124 718.666ZM561.385 713.304V711.904H563.835C564.171 711.904 564.465 711.839 564.717 711.708C564.978 711.568 565.184 711.377 565.333 711.134C565.482 710.882 565.557 710.588 565.557 710.252C565.557 709.916 565.482 709.627 565.333 709.384C565.184 709.132 564.978 708.941 564.717 708.81C564.465 708.67 564.171 708.6 563.835 708.6H561.385V707.2H563.919C564.535 707.2 565.086 707.326 565.571 707.578C566.066 707.83 566.453 708.185 566.733 708.642C567.022 709.099 567.167 709.636 567.167 710.252C567.167 710.868 567.022 711.405 566.733 711.862C566.453 712.319 566.066 712.674 565.571 712.926C565.086 713.178 564.535 713.304 563.919 713.304H561.385ZM560.279 717V707.2H561.889V717H560.279ZM568.931 716.048L572.543 712.212C572.842 711.895 573.084 711.61 573.271 711.358C573.458 711.106 573.593 710.868 573.677 710.644C573.761 710.42 573.803 710.191 573.803 709.958C573.803 709.519 573.658 709.179 573.369 708.936C573.089 708.684 572.73 708.558 572.291 708.558C571.824 708.558 571.414 708.675 571.059 708.908C570.704 709.141 570.387 709.505 570.107 710L568.987 709.076C569.37 708.413 569.841 707.914 570.401 707.578C570.961 707.233 571.61 707.06 572.347 707.06C572.954 707.06 573.486 707.181 573.943 707.424C574.4 707.667 574.755 708.007 575.007 708.446C575.259 708.875 575.385 709.375 575.385 709.944C575.385 710.355 575.334 710.723 575.231 711.05C575.138 711.367 574.974 711.689 574.741 712.016C574.508 712.333 574.186 712.707 573.775 713.136L571.003 716.006L568.931 716.048ZM568.931 717V716.048L570.317 715.558H575.581V717H568.931ZM578.206 718.666L577.324 717.882C577.94 717.313 578.416 716.575 578.752 715.67C579.098 714.765 579.27 713.747 579.27 712.618C579.27 711.479 579.098 710.462 578.752 709.566C578.416 708.661 577.94 707.923 577.324 707.354L578.206 706.57C578.701 707.009 579.126 707.545 579.48 708.18C579.844 708.815 580.124 709.51 580.32 710.266C580.516 711.022 580.614 711.806 580.614 712.618C580.614 713.43 580.516 714.214 580.32 714.97C580.124 715.726 579.844 716.421 579.48 717.056C579.126 717.691 578.701 718.227 578.206 718.666Z" fill="#1A2A33"/>
<path d="M552.146 745V728.056H555.89V745H552.146ZM548.882 731.248V728.056H555.65V731.248H548.882ZM559.477 739.12L565.045 728.056H569.149L563.461 739.12H559.477ZM559.477 741.232V739.12L560.725 738.04H573.061V741.232H559.477ZM567.469 745V734.512H571.165V745H567.469Z" fill="#1A2A33"/>
<rect x="650" y="690" width="140" height="72" rx="15" fill="#A8BFC9"/>
<path d="M708.12 717V707.48H709.73V717H708.12ZM704.928 708.67V707.2H712.922V708.67H704.928ZM715.199 717V707.2H716.809V717H715.199ZM719.806 717V707.2H721.416V717H719.806ZM720.912 717V715.53H726.4V717H720.912ZM720.912 712.702V711.288H725.924V712.702H720.912ZM720.912 708.67V707.2H726.33V708.67H720.912ZM731.423 717.14C730.648 717.14 729.99 717 729.449 716.72C728.908 716.44 728.422 716.029 727.993 715.488L729.085 714.396C729.356 714.788 729.678 715.096 730.051 715.32C730.424 715.535 730.9 715.642 731.479 715.642C732.02 715.642 732.45 715.53 732.767 715.306C733.094 715.082 733.257 714.774 733.257 714.382C733.257 714.055 733.173 713.789 733.005 713.584C732.837 713.379 732.613 713.211 732.333 713.08C732.062 712.94 731.759 712.819 731.423 712.716C731.096 712.604 730.765 712.483 730.429 712.352C730.102 712.212 729.799 712.039 729.519 711.834C729.248 711.629 729.029 711.363 728.861 711.036C728.693 710.709 728.609 710.294 728.609 709.79C728.609 709.211 728.749 708.721 729.029 708.32C729.318 707.909 729.706 707.597 730.191 707.382C730.676 707.167 731.218 707.06 731.815 707.06C732.459 707.06 733.033 707.186 733.537 707.438C734.05 707.69 734.466 708.012 734.783 708.404L733.691 709.496C733.411 709.179 733.117 708.945 732.809 708.796C732.51 708.637 732.165 708.558 731.773 708.558C731.288 708.558 730.905 708.656 730.625 708.852C730.354 709.048 730.219 709.323 730.219 709.678C730.219 709.977 730.303 710.219 730.471 710.406C730.639 710.583 730.858 710.737 731.129 710.868C731.409 710.989 731.712 711.106 732.039 711.218C732.375 711.33 732.706 711.456 733.033 711.596C733.369 711.736 733.672 711.918 733.943 712.142C734.223 712.357 734.447 712.637 734.615 712.982C734.783 713.327 734.867 713.761 734.867 714.284C734.867 715.161 734.554 715.857 733.929 716.37C733.313 716.883 732.478 717.14 731.423 717.14Z" fill="#1A2A33"/>
<path d="M712.345 745.264C711.177 745.264 710.105 745.064 709.129 744.664C708.153 744.248 707.329 743.656 706.657 742.888L709.081 740.464C709.385 740.912 709.825 741.28 710.401 741.568C710.993 741.84 711.617 741.976 712.273 741.976C712.865 741.976 713.377 741.872 713.809 741.664C714.241 741.456 714.577 741.16 714.817 740.776C715.073 740.392 715.201 739.936 715.201 739.408C715.201 738.88 715.073 738.432 714.817 738.064C714.577 737.68 714.217 737.384 713.737 737.176C713.273 736.968 712.713 736.864 712.057 736.864C711.753 736.864 711.433 736.888 711.097 736.936C710.777 736.968 710.505 737.024 710.281 737.104L711.937 735.016C712.385 734.888 712.809 734.784 713.209 734.704C713.625 734.608 714.009 734.56 714.361 734.56C715.225 734.56 716.001 734.768 716.689 735.184C717.377 735.584 717.921 736.16 718.321 736.912C718.737 737.648 718.945 738.528 718.945 739.552C718.945 740.672 718.665 741.664 718.105 742.528C717.561 743.392 716.793 744.064 715.801 744.544C714.825 745.024 713.673 745.264 712.345 745.264ZM710.281 737.104V735.016L714.409 730.168L718.633 730.144L714.337 735.04L710.281 737.104ZM707.713 731.248V728.056H718.633V730.144L715.681 731.248H707.713ZM721.756 742.888L728.26 736.168C728.66 735.768 728.98 735.4 729.22 735.064C729.46 734.728 729.636 734.416 729.748 734.128C729.86 733.824 729.916 733.52 729.916 733.216C729.916 732.56 729.7 732.048 729.268 731.68C728.852 731.296 728.3 731.104 727.612 731.104C726.94 731.104 726.332 731.288 725.788 731.656C725.26 732.008 724.748 732.592 724.252 733.408L721.732 731.224C722.404 730.088 723.26 729.232 724.3 728.656C725.34 728.08 726.532 727.792 727.876 727.792C729.044 727.792 730.052 728.008 730.9 728.44C731.764 728.872 732.428 729.488 732.892 730.288C733.372 731.088 733.612 732.024 733.612 733.096C733.612 733.768 733.524 734.392 733.348 734.968C733.172 735.528 732.884 736.088 732.484 736.648C732.1 737.192 731.58 737.792 730.924 738.448L726.412 742.936L721.756 742.888ZM721.756 745V742.888L724.948 741.784H733.948V745H721.756Z" fill="#1A2A33"/>
<rect x="810" y="690" width="140" height="72" rx="15" fill="#F2B137"/>
<g clip-path="url(#clip1_0_2264)">
<path d="M865.529 717.14C864.829 717.14 864.176 717.009 863.569 716.748C862.962 716.487 862.43 716.127 861.973 715.67C861.516 715.203 861.156 714.667 860.895 714.06C860.643 713.444 860.517 712.786 860.517 712.086C860.517 711.386 860.643 710.733 860.895 710.126C861.156 709.519 861.511 708.987 861.959 708.53C862.416 708.063 862.944 707.704 863.541 707.452C864.148 707.191 864.801 707.06 865.501 707.06C866.201 707.06 866.85 707.191 867.447 707.452C868.054 707.704 868.586 708.063 869.043 708.53C869.5 708.987 869.855 709.524 870.107 710.14C870.368 710.747 870.499 711.4 870.499 712.1C870.499 712.8 870.368 713.458 870.107 714.074C869.855 714.681 869.5 715.213 869.043 715.67C868.595 716.127 868.068 716.487 867.461 716.748C866.864 717.009 866.22 717.14 865.529 717.14ZM865.501 715.6C866.164 715.6 866.742 715.451 867.237 715.152C867.741 714.853 868.133 714.443 868.413 713.92C868.702 713.388 868.847 712.777 868.847 712.086C868.847 711.573 868.763 711.106 868.595 710.686C868.436 710.257 868.208 709.888 867.909 709.58C867.61 709.263 867.256 709.02 866.845 708.852C866.444 708.684 865.996 708.6 865.501 708.6C864.848 708.6 864.269 708.749 863.765 709.048C863.27 709.337 862.878 709.743 862.589 710.266C862.309 710.789 862.169 711.395 862.169 712.086C862.169 712.599 862.248 713.075 862.407 713.514C862.575 713.943 862.804 714.312 863.093 714.62C863.392 714.928 863.746 715.171 864.157 715.348C864.568 715.516 865.016 715.6 865.501 715.6ZM878.593 718.666C878.098 718.227 877.669 717.691 877.305 717.056C876.95 716.421 876.675 715.726 876.479 714.97C876.283 714.214 876.185 713.43 876.185 712.618C876.185 711.806 876.283 711.022 876.479 710.266C876.675 709.51 876.95 708.815 877.305 708.18C877.669 707.545 878.098 707.009 878.593 706.57L879.475 707.354C878.859 707.923 878.378 708.661 878.033 709.566C877.697 710.462 877.529 711.479 877.529 712.618C877.529 713.747 877.697 714.765 878.033 715.67C878.378 716.575 878.859 717.313 879.475 717.882L878.593 718.666ZM882.854 713.304V711.904H885.304C885.64 711.904 885.934 711.839 886.186 711.708C886.447 711.568 886.652 711.377 886.802 711.134C886.951 710.882 887.026 710.588 887.026 710.252C887.026 709.916 886.951 709.627 886.802 709.384C886.652 709.132 886.447 708.941 886.186 708.81C885.934 708.67 885.64 708.6 885.304 708.6H882.854V707.2H885.388C886.004 707.2 886.554 707.326 887.04 707.578C887.534 707.83 887.922 708.185 888.202 708.642C888.491 709.099 888.636 709.636 888.636 710.252C888.636 710.868 888.491 711.405 888.202 711.862C887.922 712.319 887.534 712.674 887.04 712.926C886.554 713.178 886.004 713.304 885.388 713.304H882.854ZM881.748 717V707.2H883.358V717H881.748ZM892.332 717V707.2H893.914V717H892.332ZM890.372 708.642V707.2H893.774V708.642H890.372ZM897.077 718.666L896.195 717.882C896.811 717.313 897.287 716.575 897.623 715.67C897.969 714.765 898.141 713.747 898.141 712.618C898.141 711.479 897.969 710.462 897.623 709.566C897.287 708.661 896.811 707.923 896.195 707.354L897.077 706.57C897.572 707.009 897.997 707.545 898.351 708.18C898.715 708.815 898.995 709.51 899.191 710.266C899.387 711.022 899.485 711.806 899.485 712.618C899.485 713.43 899.387 714.214 899.191 714.97C898.995 715.726 898.715 716.421 898.351 717.056C897.997 717.691 897.572 718.227 897.077 718.666Z" fill="#1A2A33"/>
<path d="M873.924 745V728.056H877.668V745H873.924ZM870.66 731.248V728.056H877.428V731.248H870.66ZM884.494 745V728.056H888.238V745H884.494ZM881.23 731.248V728.056H887.998V731.248H881.23Z" fill="#1A2A33"/>
</g>
<defs>
<filter id="filter0_i_0_2264" x="490" y="210" width="140" height="140" filterUnits="userSpaceOnUse" color-interpolation-filters="sRGB">
<feFlood flood-opacity="0" result="BackgroundImageFix"/>
<feBlend mode="normal" in="SourceGraphic" in2="BackgroundImageFix" result="shape"/>
<feColorMatrix in="SourceAlpha" type="matrix" values="0 0 0 0 0 0 0 0 0 0 0 0 0 0 0 0 0 0 127 0" result="hardAlpha"/>
<feOffset dy="-8"/>
<feComposite in2="hardAlpha" operator="arithmetic" k2="-1" k3="1"/>
<feColorMatrix type="matrix" values="0 0 0 0 0.0627451 0 0 0 0 0.129412 0 0 0 0 0.164706 0 0 0 1 0"/>
<feBlend mode="normal" in2="shape" result="effect1_innerShadow_0_2264"/>
</filter>
<filter id="filter1_i_0_2264" x="650" y="211" width="140" height="140" filterUnits="userSpaceOnUse" color-interpolation-filters="sRGB">
<feFlood flood-opacity="0" result="BackgroundImageFix"/>
<feBlend mode="normal" in="SourceGraphic" in2="BackgroundImageFix" result="shape"/>
<feColorMatrix in="SourceAlpha" type="matrix" values="0 0 0 0 0 0 0 0 0 0 0 0 0 0 0 0 0 0 127 0" result="hardAlpha"/>
<feOffset dy="-8"/>
<feComposite in2="hardAlpha" operator="arithmetic" k2="-1" k3="1"/>
<feColorMatrix type="matrix" values="0 0 0 0 0.0627451 0 0 0 0 0.129412 0 0 0 0 0.164706 0 0 0 1 0"/>
<feBlend mode="normal" in2="shape" result="effect1_innerShadow_0_2264"/>
</filter>
<filter id="filter2_i_0_2264" x="810" y="211" width="140" height="140" filterUnits="userSpaceOnUse" color-interpolation-filters="sRGB">
<feFlood flood-opacity="0" result="BackgroundImageFix"/>
<feBlend mode="normal" in="SourceGraphic" in2="BackgroundImageFix" result="shape"/>
<feColorMatrix in="SourceAlpha" type="matrix" values="0 0 0 0 0 0 0 0 0 0 0 0 0 0 0 0 0 0 127 0" result="hardAlpha"/>
<feOffset dy="-8"/>
<feComposite in2="hardAlpha" operator="arithmetic" k2="-1" k3="1"/>
<feColorMatrix type="matrix" values="0 0 0 0 0.0627451 0 0 0 0 0.129412 0 0 0 0 0.164706 0 0 0 1 0"/>
<feBlend mode="normal" in2="shape" result="effect1_innerShadow_0_2264"/>
</filter>
<filter id="filter3_i_0_2264" x="490" y="371" width="140" height="140" filterUnits="userSpaceOnUse" color-interpolation-filters="sRGB">
<feFlood flood-opacity="0" result="BackgroundImageFix"/>
<feBlend mode="normal" in="SourceGraphic" in2="BackgroundImageFix" result="shape"/>
<feColorMatrix in="SourceAlpha" type="matrix" values="0 0 0 0 0 0 0 0 0 0 0 0 0 0 0 0 0 0 127 0" result="hardAlpha"/>
<feOffset dy="-8"/>
<feComposite in2="hardAlpha" operator="arithmetic" k2="-1" k3="1"/>
<feColorMatrix type="matrix" values="0 0 0 0 0.0627451 0 0 0 0 0.129412 0 0 0 0 0.164706 0 0 0 1 0"/>
<feBlend mode="normal" in2="shape" result="effect1_innerShadow_0_2264"/>
</filter>
<filter id="filter4_i_0_2264" x="650" y="371" width="140" height="140" filterUnits="userSpaceOnUse" color-interpolation-filters="sRGB">
<feFlood flood-opacity="0" result="BackgroundImageFix"/>
<feBlend mode="normal" in="SourceGraphic" in2="BackgroundImageFix" result="shape"/>
<feColorMatrix in="SourceAlpha" type="matrix" values="0 0 0 0 0 0 0 0 0 0 0 0 0 0 0 0 0 0 127 0" result="hardAlpha"/>
<feOffset dy="-8"/>
<feComposite in2="hardAlpha" operator="arithmetic" k2="-1" k3="1"/>
<feColorMatrix type="matrix" values="0 0 0 0 0.0627451 0 0 0 0 0.129412 0 0 0 0 0.164706 0 0 0 1 0"/>
<feBlend mode="normal" in2="shape" result="effect1_innerShadow_0_2264"/>
</filter>
<filter id="filter5_i_0_2264" x="810" y="371" width="140" height="140" filterUnits="userSpaceOnUse" color-interpolation-filters="sRGB">
<feFlood flood-opacity="0" result="BackgroundImageFix"/>
<feBlend mode="normal" in="SourceGraphic" in2="BackgroundImageFix" result="shape"/>
<feColorMatrix in="SourceAlpha" type="matrix" values="0 0 0 0 0 0 0 0 0 0 0 0 0 0 0 0 0 0 127 0" result="hardAlpha"/>
<feOffset dy="-8"/>
<feComposite in2="hardAlpha" operator="arithmetic" k2="-1" k3="1"/>
<feColorMatrix type="matrix" values="0 0 0 0 0.0627451 0 0 0 0 0.129412 0 0 0 0 0.164706 0 0 0 1 0"/>
<feBlend mode="normal" in2="shape" result="effect1_innerShadow_0_2264"/>
</filter>
<filter id="filter6_i_0_2264" x="490" y="531" width="140" height="140" filterUnits="userSpaceOnUse" color-interpolation-filters="sRGB">
<feFlood flood-opacity="0" result="BackgroundImageFix"/>
<feBlend mode="normal" in="SourceGraphic" in2="BackgroundImageFix" result="shape"/>
<feColorMatrix in="SourceAlpha" type="matrix" values="0 0 0 0 0 0 0 0 0 0 0 0 0 0 0 0 0 0 127 0" result="hardAlpha"/>
<feOffset dy="-8"/>
<feComposite in2="hardAlpha" operator="arithmetic" k2="-1" k3="1"/>
<feColorMatrix type="matrix" values="0 0 0 0 0.0627451 0 0 0 0 0.129412 0 0 0 0 0.164706 0 0 0 1 0"/>
<feBlend mode="normal" in2="shape" result="effect1_innerShadow_0_2264"/>
</filter>
<filter id="filter7_i_0_2264" x="650" y="531" width="140" height="140" filterUnits="userSpaceOnUse" color-interpolation-filters="sRGB">
<feFlood flood-opacity="0" result="BackgroundImageFix"/>
<feBlend mode="normal" in="SourceGraphic" in2="BackgroundImageFix" result="shape"/>
<feColorMatrix in="SourceAlpha" type="matrix" values="0 0 0 0 0 0 0 0 0 0 0 0 0 0 0 0 0 0 127 0" result="hardAlpha"/>
<feOffset dy="-8"/>
<feComposite in2="hardAlpha" operator="arithmetic" k2="-1" k3="1"/>
<feColorMatrix type="matrix" values="0 0 0 0 0.0627451 0 0 0 0 0.129412 0 0 0 0 0.164706 0 0 0 1 0"/>
<feBlend mode="normal" in2="shape" result="effect1_innerShadow_0_2264"/>
</filter>
<filter id="filter8_i_0_2264" x="810" y="531" width="140" height="140" filterUnits="userSpaceOnUse" color-interpolation-filters="sRGB">
<feFlood flood-opacity="0" result="BackgroundImageFix"/>
<feBlend mode="normal" in="SourceGraphic" in2="BackgroundImageFix" result="shape"/>
<feColorMatrix in="SourceAlpha" type="matrix" values="0 0 0 0 0 0 0 0 0 0 0 0 0 0 0 0 0 0 127 0" result="hardAlpha"/>
<feOffset dy="-8"/>
<feComposite in2="hardAlpha" operator="arithmetic" k2="-1" k3="1"/>
<feColorMatrix type="matrix" values="0 0 0 0 0.0627451 0 0 0 0 0.129412 0 0 0 0 0.164706 0 0 0 1 0"/>
<feBlend mode="normal" in2="shape" result="effect1_innerShadow_0_2264"/>
</filter>
<filter id="filter9_i_0_2264" x="650" y="139" width="140" height="52" filterUnits="userSpaceOnUse" color-interpolation-filters="sRGB">
<feFlood flood-opacity="0" result="BackgroundImageFix"/>
<feBlend mode="normal" in="SourceGraphic" in2="BackgroundImageFix" result="shape"/>
<feColorMatrix in="SourceAlpha" type="matrix" values="0 0 0 0 0 0 0 0 0 0 0 0 0 0 0 0 0 0 127 0" result="hardAlpha"/>
<feOffset dy="-4"/>
<feComposite in2="hardAlpha" operator="arithmetic" k2="-1" k3="1"/>
<feColorMatrix type="matrix" values="0 0 0 0 0.0627451 0 0 0 0 0.129412 0 0 0 0 0.164706 0 0 0 1 0"/>
<feBlend mode="normal" in2="shape" result="effect1_innerShadow_0_2264"/>
</filter>
<filter id="filter10_i_0_2264" x="898" y="139" width="52" height="52" filterUnits="userSpaceOnUse" color-interpolation-filters="sRGB">
<feFlood flood-opacity="0" result="BackgroundImageFix"/>
<feBlend mode="normal" in="SourceGraphic" in2="BackgroundImageFix" result="shape"/>
<feColorMatrix in="SourceAlpha" type="matrix" values="0 0 0 0 0 0 0 0 0 0 0 0 0 0 0 0 0 0 127 0" result="hardAlpha"/>
<feOffset dy="-4"/>
<feComposite in2="hardAlpha" operator="arithmetic" k2="-1" k3="1"/>
<feColorMatrix type="matrix" values="0 0 0 0 0.418727 0 0 0 0 0.538482 0 0 0 0 0.590549 0 0 0 1 0"/>
<feBlend mode="normal" in2="shape" result="effect1_innerShadow_0_2264"/>
</filter>
<clipPath id="clip0_0_2264">
<rect width="80" height="20" fill="white" transform="translate(680 152)"/>
</clipPath>
<clipPath id="clip1_0_2264">
<rect width="41" height="48" fill="white" transform="translate(859.5 703)"/>
</clipPath>
</defs>
</svg>
